<svg xmlns="http://www.w3.org/2000/svg" viewBox="0 0 305.66 263.46"><defs><style>.cls-1{fill:#875441;}.cls-2{fill:#5e4237;}.cls-3{fill:#a12c20;}.cls-4{fill:#66241e;}.cls-5{fill:#381410;}.cls-6{fill:#d1be6f;}.cls-7{fill:#911515;}.cls-8{fill:#507ca8;}.cls-9{fill:#7abcff;}.cls-10{fill:#eb2d2d;}.cls-11{fill:#2c447a;}.cls-12{fill:#fff;}.cls-13{fill:#adadad;}.cls-14{fill:#ff8513;}.cls-15{fill:#ab590d;}.cls-16{fill:#3a9600;}.cls-17{fill:#44b000;}.cls-18{fill:#3b9c00;}.cls-19{fill:#e8808b;}.cls-20{fill:#ffbfc7;}.cls-21{fill:#54110a;}.cls-22{fill:#bf3324;}.cls-23{fill:#bf4d41;}.cls-24{fill:#fad400;}.cls-25{fill:#ffeb7a;}.cls-26{fill:#663f30;}.cls-27{fill:#109d59;}.cls-28{fill:#f78d8d;}.cls-29{fill:#5cc32d;}.cls-30{fill:#94f768;}.cls-31{fill:#00b306;}.cls-32{fill:#006603;}.cls-33{fill:#ffba4f;}.cls-34{fill:#b3b3b3;}.cls-35{fill:#3287db;}.cls-36{fill:#8f8f8f;}.cls-37{fill:#b7ffe6;}.cls-38{fill:#354747;}.cls-39{fill:#465e5d;}.cls-40{fill:#648785;}.cls-41{fill:#88b8b4;}.cls-42{fill:#4a6362;}.cls-43{fill:#273635;}.cls-44{fill:#d4d4d4;}.cls-45{fill:#ababab;}.cls-46{fill:#f0851d;}.cls-47{fill:#8c8c8c;}.cls-48{fill:#8a8a8a;}.cls-49{fill:#2c5bdc;}.cls-50{fill:#ff9513;}.cls-51{fill:#ffa417;}.cls-52{fill:#ff2424;}.cls-53{fill:#ab1818;}.cls-54{fill:#b33636;}.cls-55{fill:#403434;}.cls-56{fill:#7d7171;}</style></defs><g id="Layer_2" data-name="Layer 2"><g id="Layer_1-2" data-name="Layer 1"><ellipse class="cls-1" cx="124.9" cy="68.69" rx="27.03" ry="17.52" transform="translate(-16.42 50.07) rotate(-21.3)"/><path class="cls-2" d="M110,68.11c.3.85.36,1.6.13,1.68s-.67-.54-1-1.38-.35-1.6-.12-1.68S109.74,67.26,110,68.11Z"/><path class="cls-2" d="M125.69,74.05c.25.69.21,1.33-.09,1.44s-.73-.37-1-1.06-.2-1.33.1-1.44S125.45,73.36,125.69,74.05Z"/><path class="cls-2" d="M128.29,62.06c.37,1,.35,2,0,2.16s-1-.6-1.39-1.65-.36-2,0-2.16S127.92,61,128.29,62.06Z"/><path class="cls-2" d="M137.38,72.58c.37,1,.37,2,0,2.08s-.95-.59-1.31-1.61-.36-2,0-2.08S137,71.56,137.38,72.58Z"/><path class="cls-2" d="M142.22,64.27c.44,1.24.44,2.36,0,2.51s-1.13-.72-1.57-2-.44-2.36,0-2.51S141.78,63,142.22,64.27Z"/><path class="cls-2" d="M138.19,52.9c.21.6,0,1.21-.39,1.36s-1-.21-1.16-.81,0-1.21.39-1.36S138,52.3,138.19,52.9Z"/><path class="cls-2" d="M119.44,79.48c.45,1.29.47,2.45,0,2.6s-1.14-.77-1.59-2-.48-2.45,0-2.6S119,78.2,119.44,79.48Z"/><path class="cls-2" d="M104.92,79c.37,1,.43,2,.13,2.07s-.83-.65-1.2-1.69-.43-2-.13-2.07S104.55,78,104.92,79Z"/><path class="cls-2" d="M112.47,80.65c.38,1.06.36,2,0,2.18s-1-.61-1.4-1.68-.36-2,0-2.18S112.09,79.58,112.47,80.65Z"/><path class="cls-2" d="M118.46,69.9c.38,1.09.43,2.06.1,2.18s-.91-.67-1.3-1.76-.43-2.06-.1-2.17S118.07,68.81,118.46,69.9Z"/><path class="cls-2" d="M133.3,80.74c.29.82.23,1.59-.13,1.72s-.89-.43-1.18-1.25-.24-1.6.12-1.73S133,79.92,133.3,80.74Z"/><path class="cls-2" d="M121.61,61.39c.46,1.29.37,2.49-.19,2.69s-1.38-.69-1.83-2-.37-2.48.18-2.68S121.16,60.11,121.61,61.39Z"/><path class="cls-2" d="M122.88,53.44c.29.82.3,1.56,0,1.66s-.74-.49-1-1.3-.3-1.56,0-1.66S122.6,52.62,122.88,53.44Z"/><path class="cls-2" d="M113.51,59.74c.32.9.37,1.7.1,1.8s-.73-.57-1-1.47-.37-1.7-.1-1.79S113.19,58.84,113.51,59.74Z"/><path class="cls-2" d="M105.3,68c.39,1.09.43,2.06.1,2.18s-.91-.67-1.29-1.76-.43-2.06-.1-2.18S104.92,66.9,105.3,68Z"/><path class="cls-2" d="M135.94,59.79c.15.43.08.84-.15.92s-.54-.2-.69-.62-.08-.83.15-.91S135.79,59.37,135.94,59.79Z"/><path class="cls-2" d="M146,58.52c.47,1.33.4,2.57-.16,2.77s-1.4-.72-1.87-2-.4-2.58.16-2.78S145.48,57.19,146,58.52Z"/><ellipse class="cls-1" cx="76.85" cy="72.78" rx="17.52" ry="27.03" transform="translate(-13.18 128.44) rotate(-75.17)"/><path class="cls-2" d="M88.51,82c.25-.86.65-1.5.89-1.43s.21.82-.05,1.68-.65,1.51-.88,1.44S88.25,82.87,88.51,82Z"/><path class="cls-2" d="M79.36,68c.21-.7.63-1.19.93-1.1s.37.73.17,1.43-.63,1.2-.93,1.11S79.16,68.68,79.36,68Z"/><path class="cls-2" d="M70.2,76.14c.32-1.07.9-1.84,1.31-1.72s.46,1.08.14,2.15-.9,1.84-1.3,1.72S69.88,77.2,70.2,76.14Z"/><path class="cls-2" d="M69.06,62.27c.31-1,.86-1.79,1.23-1.68s.41,1,.1,2.08-.86,1.79-1.22,1.68S68.75,63.31,69.06,62.27Z"/><path class="cls-2" d="M60.25,66.13c.38-1.25,1-2.16,1.47-2s.48,1.25.11,2.5-1,2.17-1.47,2S59.88,67.39,60.25,66.13Z"/><path class="cls-2" d="M56.8,77.69c.18-.6.68-1,1.12-.86a1,1,0,0,1,.46,1.33c-.18.61-.68,1-1.12.87A1,1,0,0,1,56.8,77.69Z"/><path class="cls-2" d="M87.62,67.29C88,66,88.68,65,89.12,65.16s.47,1.29.08,2.6S88.14,70,87.71,69.88,87.23,68.59,87.62,67.29Z"/><path class="cls-2" d="M99.08,76.21c.32-1.06.82-1.84,1.12-1.75s.29,1,0,2.08-.82,1.84-1.12,1.75S98.76,77.27,99.08,76.21Z"/><path class="cls-2" d="M93.94,70.45c.32-1.08.91-1.87,1.31-1.75s.46,1.1.14,2.19-.91,1.86-1.31,1.74S93.61,71.54,93.94,70.45Z"/><path class="cls-2" d="M82.77,75.6c.32-1.1.86-1.92,1.2-1.82s.34,1.08,0,2.18-.87,1.92-1.21,1.82S82.44,76.71,82.77,75.6Z"/><path class="cls-2" d="M77.17,58.09c.25-.83.75-1.42,1.12-1.31s.46.88.21,1.71-.75,1.43-1.12,1.32S76.92,58.93,77.17,58.09Z"/><path class="cls-2" d="M75.2,80.61c.39-1.3,1.17-2.22,1.73-2s.72,1.36.33,2.67-1.17,2.22-1.74,2S74.81,81.92,75.2,80.61Z"/><ellipse class="cls-2" cx="69.99" cy="86.44" rx="1.57" ry="0.54" transform="translate(-32.85 128.78) rotate(-73.38)"/><path class="cls-2" d="M80.76,86.73c.28-.92.72-1.6,1-1.52s.27.89,0,1.81-.71,1.59-1,1.51S80.49,87.64,80.76,86.73Z"/><path class="cls-2" d="M92.26,84.9c.33-1.1.87-1.92,1.21-1.82s.33,1.08,0,2.18-.86,1.92-1.2,1.82S91.93,86,92.26,84.9Z"/><path class="cls-2" d="M62.69,73.45c.13-.43.42-.72.65-.65s.32.48.19.91-.42.72-.65.65S62.56,73.89,62.69,73.45Z"/><path class="cls-2" d="M53.85,68.58c.4-1.35,1.19-2.31,1.76-2.14s.7,1.4.3,2.76-1.2,2.31-1.76,2.14S53.44,69.94,53.85,68.58Z"/><ellipse class="cls-1" cx="50.33" cy="99.2" rx="17.52" ry="27.03" transform="translate(-59 119.73) rotate(-73.73)"/><path class="cls-2" d="M38.91,89.68c-.28.85-.69,1.49-.93,1.41s-.19-.83.09-1.68.69-1.49.92-1.41S39.19,88.83,38.91,89.68Z"/><path class="cls-2" d="M47.7,103.93c-.23.7-.66,1.18-1,1.09s-.35-.74-.13-1.44.66-1.18,1-1.08S47.92,103.24,47.7,103.93Z"/><path class="cls-2" d="M57.06,96c-.35,1.06-1,1.82-1.35,1.69s-.44-1.1-.09-2.16,1-1.81,1.35-1.68S57.41,95,57.06,96Z"/><path class="cls-2" d="M57.85,109.9c-.33,1-.9,1.77-1.27,1.65s-.38-1,0-2.08.9-1.77,1.27-1.65S58.19,108.87,57.85,109.9Z"/><path class="cls-2" d="M66.75,106.26c-.4,1.25-1.08,2.14-1.51,2s-.45-1.26,0-2.51,1.09-2.14,1.52-2S67.16,105,66.75,106.26Z"/><path class="cls-2" d="M70.49,94.79c-.19.6-.7,1-1.13.84a1,1,0,0,1-.43-1.35c.2-.6.71-1,1.14-.84A1,1,0,0,1,70.49,94.79Z"/><path class="cls-2" d="M39.42,104.42c-.42,1.3-1.11,2.23-1.54,2.09s-.44-1.3,0-2.6,1.11-2.23,1.54-2.09S39.84,103.13,39.42,104.42Z"/><path class="cls-2" d="M28.19,95.22c-.34,1-.86,1.82-1.16,1.72s-.26-1,.08-2.08S28,93,28.27,93.14,28.53,94.17,28.19,95.22Z"/><path class="cls-2" d="M33.19,101.1c-.35,1.08-1,1.84-1.36,1.71s-.43-1.1-.08-2.18,1-1.84,1.35-1.71S33.54,100,33.19,101.1Z"/><path class="cls-2" d="M44.49,96.23c-.36,1.1-.92,1.9-1.25,1.79s-.31-1.08,0-2.18.92-1.9,1.25-1.79S44.84,95.14,44.49,96.23Z"/><path class="cls-2" d="M49.64,113.87c-.27.83-.78,1.41-1.15,1.29s-.44-.89-.17-1.72.79-1.4,1.15-1.28S49.91,113,49.64,113.87Z"/><path class="cls-2" d="M52.18,91.41c-.43,1.3-1.23,2.2-1.79,2s-.68-1.38-.26-2.67,1.22-2.2,1.79-2S52.6,90.12,52.18,91.41Z"/><path class="cls-2" d="M58,85.88c-.27.83-.72,1.42-1,1.33s-.3-.83,0-1.66.72-1.42,1-1.32S58.3,85.06,58,85.88Z"/><path class="cls-2" d="M46.77,85.16c-.3.91-.76,1.58-1,1.49s-.24-.89,0-1.8.76-1.58,1-1.49S47.06,84.25,46.77,85.16Z"/><path class="cls-2" d="M35.23,86.7c-.36,1.09-.92,1.9-1.25,1.79s-.31-1.09,0-2.18.92-1.9,1.25-1.79S35.58,85.6,35.23,86.7Z"/><path class="cls-2" d="M64.51,98.88c-.14.43-.45.71-.68.64s-.31-.49-.17-.91.44-.71.68-.64S64.64,98.45,64.51,98.88Z"/><path class="cls-2" d="M73.22,104c-.44,1.35-1.25,2.29-1.82,2.1s-.66-1.42-.22-2.76,1.25-2.29,1.81-2.1S73.66,102.63,73.22,104Z"/><path class="cls-3" d="M183.63,138.61l17.25-119.8C201.69,13.19,194.13,7.45,184,6l-.37-.06c-10.14-1.46-19,1.92-19.82,7.54l-17.25,119.8c-.81,5.62,6.75,11.36,16.88,12.82l.37.06C174,147.6,182.82,144.23,183.63,138.61Z"/><polygon class="cls-3" points="163.83 144.74 170.67 150.55 157.52 148.66 163.83 144.74"/><polygon class="cls-3" points="182.8 5.81 175.96 0 189.11 1.89 182.8 5.81"/><rect class="cls-4" x="138.45" y="58.79" width="70.11" height="37.46" transform="translate(72.05 238.21) rotate(-81.81)"/><rect class="cls-5" x="175.26" y="39.5" width="4.98" height="26.74" transform="translate(100.08 221.28) rotate(-81.81)"/><rect class="cls-5" x="168.37" y="87.41" width="4.98" height="26.74" transform="translate(46.76 255.53) rotate(-81.81)"/><path class="cls-6" d="M160.46,79.17l.23-1.59a13.24,13.24,0,0,1,15-11.22l.26,0a13.24,13.24,0,0,1,11.22,15L186.93,83a13.23,13.23,0,0,1-15,11.21l-.27,0A13.25,13.25,0,0,1,160.46,79.17Z"/><path class="cls-7" d="M45.07,145l9.07,94.38c.93,9.65,16.73,17.33,26.07,17.33H221.64c9.34,0,26.64-7.68,27.58-17.33L256.54,145Zm46.49,89.69a4.05,4.05,0,0,1-4,4.42h-13a4.81,4.81,0,0,1-4.65-4.42L68,211.94a4.15,4.15,0,0,1,4.06-4.67H85.53a4.9,4.9,0,0,1,4.7,4.67Zm-2.62-44.82a4.35,4.35,0,0,1-4.21,4.82H71.14a5.15,5.15,0,0,1-4.87-4.82l-2-24.8c-.23-2.81,1.66-5.09,4.22-5.09h14A5.23,5.23,0,0,1,87.48,165Zm30.71,44.82a4.2,4.2,0,0,1-4.16,4.42h-13A4.63,4.63,0,0,1,98,234.65l-1.19-22.71a4.28,4.28,0,0,1,4.19-4.67h13.42a4.74,4.74,0,0,1,4.58,4.67Zm-1.39-44.82a4.48,4.48,0,0,1-4.33,4.82H100.34a5,5,0,0,1-4.74-4.82L94.3,165a4.59,4.59,0,0,1,4.37-5.09h14A5.07,5.07,0,0,1,117.5,165Zm29.47,44.82a4.34,4.34,0,0,1-4.28,4.42h-13a4.48,4.48,0,0,1-4.41-4.42l-.56-22.71a4.43,4.43,0,0,1,4.32-4.67h13.43a4.58,4.58,0,0,1,4.44,4.67Zm-.14-44.82a4.64,4.64,0,0,1-4.47,4.82H129.53a4.8,4.8,0,0,1-4.6-4.82l-.61-24.8a4.74,4.74,0,0,1,4.51-5.09h14a4.89,4.89,0,0,1,4.65,5.09Zm28.23,44.82a4.48,4.48,0,0,1-4.41,4.42h-13a4.34,4.34,0,0,1-4.28-4.42l.07-22.71a4.58,4.58,0,0,1,4.45-4.67h13.42a4.43,4.43,0,0,1,4.32,4.67Zm1.1-44.82a4.8,4.8,0,0,1-4.6,4.82H158.73a4.64,4.64,0,0,1-4.47-4.82l.08-24.8a4.9,4.9,0,0,1,4.65-5.09h14a4.74,4.74,0,0,1,4.51,5.09Zm27,44.82a4.63,4.63,0,0,1-4.52,4.42h-13a4.2,4.2,0,0,1-4.16-4.42l.7-22.71a4.74,4.74,0,0,1,4.58-4.67h13.43a4.28,4.28,0,0,1,4.18,4.67Zm2.35-44.82a5,5,0,0,1-4.74,4.82H187.92a4.48,4.48,0,0,1-4.33-4.82l.76-24.8a5.07,5.07,0,0,1,4.79-5.09h14a4.59,4.59,0,0,1,4.37,5.09ZM232,234.65a4.81,4.81,0,0,1-4.65,4.42h-13a4.05,4.05,0,0,1-4-4.42l1.33-22.71a4.9,4.9,0,0,1,4.7-4.67h13.43a4.15,4.15,0,0,1,4.06,4.67Zm3.59-44.82a5.14,5.14,0,0,1-4.87,4.82H217.12a4.34,4.34,0,0,1-4.2-4.82l1.45-24.8a5.23,5.23,0,0,1,4.93-5.09h14c2.56,0,4.45,2.28,4.22,5.09Z"/><rect class="cls-8" x="87.01" y="59.08" width="21.24" height="8.97"/><rect class="cls-9" x="84.23" y="57.05" width="26.81" height="2.03"/><path class="cls-9" d="M97.94,65.7h-.63A31.26,31.26,0,0,0,66.06,97V246.08A7,7,0,0,0,73,253h2a7,7,0,0,0,6.45-4.37A31.07,31.07,0,0,0,97.31,253h.63a31.08,31.08,0,0,0,15.9-4.37,6.94,6.94,0,0,0,6.44,4.37h2a7,7,0,0,0,6.95-6.94V97A31.26,31.26,0,0,0,97.94,65.7Z"/><path class="cls-10" d="M105.38,44.45H89.88A2.87,2.87,0,0,0,87,47.32v9.73h21.24V47.32A2.87,2.87,0,0,0,105.38,44.45Z"/><rect class="cls-11" x="66.06" y="128.15" width="63.14" height="61.57"/><ellipse class="cls-12" cx="97.5" cy="155.16" rx="27.55" ry="19.62"/><polygon class="cls-13" points="112.77 158.94 112.77 151.72 101.99 151.72 101.99 155.99 97.61 155.99 97.61 140.4 91.63 140.4 91.63 154.18 85.86 154.18 85.86 158.94 75.93 158.94 75.93 164.32 85.86 164.32 86.82 164.32 91.63 164.32 91.63 165.82 97.61 165.82 97.61 163.47 101.99 163.47 101.99 164.86 111.7 164.86 112.77 164.86 120.36 164.86 120.36 158.94 112.77 158.94"/><rect class="cls-10" x="70.91" y="162.45" width="53.02" height="8.17"/><rect class="cls-12" x="72.83" y="180.72" width="39.09" height="5.45" rx="2.7"/><path class="cls-12" d="M121.33,80.78c1.79,2.34,2.07,5.14.62,6.25s-4.09.11-5.88-2.23-2.07-5.14-.62-6.25S119.54,78.44,121.33,80.78Z"/><path class="cls-14" d="M87.36,165.47,51.59,96.69A17,17,0,0,1,62.2,72l.34-.09A17,17,0,0,1,84,88Z"/><polygon class="cls-15" points="73.85 95.22 84.18 91.25 84.28 93.65 73.85 95.22"/><polygon class="cls-15" points="55.95 105.06 68.1 101.82 56.66 106.42 55.95 105.06"/><polygon class="cls-15" points="72.09 108.36 84.71 103.54 84.83 106.36 72.09 108.36"/><polygon class="cls-15" points="66.03 124.46 76.78 120.46 67.21 126.72 66.03 124.46"/><polygon class="cls-15" points="77.47 128.51 85.68 126.32 85.77 128.43 77.47 128.51"/><polygon class="cls-15" points="72.84 137.56 80.58 134.72 73.85 139.5 72.84 137.56"/><polygon class="cls-15" points="81.96 145.32 86.42 143.45 86.52 145.94 81.96 145.32"/><polygon class="cls-15" points="80.34 151.97 84.86 150.76 81.57 154.34 80.34 151.97"/><path class="cls-16" d="M65.61,71.5c.19.71-1,1.63-2.61,2.07s-3.1.21-3.29-.5,1-1.63,2.61-2.06S65.42,70.79,65.61,71.5Z"/><path class="cls-17" d="M62.54,71.9c-12.62-10.47-20.94-28-18-31.91,1.7-2.26,2.69-.36,3.73-1.35s-13.53-13-10.92-17.1,4.51-.06,5.66-.25-9.09-10.81.5-12.42,4.29,9.83,5.76,10.39,2.79-1.07,7,2S53,34.61,53.76,35.36s1.66-2.31,4.59-.7C64.15,37.1,58.08,50.73,62.54,71.9Z"/><path class="cls-18" d="M62.32,71c-.89.1-4.44-32.46,2-34.32,2.48-.84,2.37,1.42,2.37,1.42S71.5,25.57,77.05,24.64c1.62-.1.4,1.92,1,2.07s8-8.15,11.59-2.46-9,8.16-9,8.76,1.92-.41,1.91,1.58-12,6.5-11.67,7.13,1.17-.19,1.8,1C75.62,47.58,66.26,55.11,62.32,71Z"/><path class="cls-18" d="M62.54,71.9s-13.56-22-16-22.8S45.34,51.44,44.07,52s-5.24-19.59-16-8.6,12.29,13.06,12.62,14-3.79-.65-3.16,2.16S62.54,71.9,62.54,71.9Z"/><path class="cls-14" d="M148.21,251.46l-77.45-3.28a17,17,0,0,1-16.13-21.5l.09-.34a17,17,0,0,1,24.69-10.61Z"/><polygon class="cls-15" points="80.58 228.15 82.29 217.22 84.42 218.33 80.58 228.15"/><polygon class="cls-15" points="80.19 248.58 83.43 236.43 81.72 248.64 80.19 248.58"/><polygon class="cls-15" points="91.09 236.23 93.2 222.89 95.71 224.19 91.09 236.23"/><polygon class="cls-15" points="102.03 249.5 103.92 238.2 104.58 249.61 102.03 249.5"/><polygon class="cls-15" points="111.24 241.61 113.43 233.4 115.31 234.37 111.24 241.61"/><polygon class="cls-15" points="116.78 250.13 118.17 242.01 118.96 250.22 116.78 250.13"/><polygon class="cls-15" points="128.05 246.1 128.65 241.3 130.86 242.45 128.05 246.1"/><polygon class="cls-15" points="133.01 250.82 134.22 246.29 135.68 250.93 133.01 250.82"/><path class="cls-16" d="M55.91,223.47c.7.19.92,1.67.49,3.3s-1.36,2.79-2.07,2.6-.93-1.66-.49-3.29S55.2,223.28,55.91,223.47Z"/><path class="cls-19" d="M137.29,248.76c-19.13,11.78-48.62-1.36-65.85-29.36s-15.69-60.24,3.44-72,48.62,1.36,65.86,29.36S156.43,237,137.29,248.76Z"/><path class="cls-20" d="M152.48,221.22s2.38,9-16.91-7.74c-26.23-19.82-23.17-54-13.26-37.16C146.05,212.8,152.64,191.22,152.48,221.22Z"/><path class="cls-20" d="M137.29,248.76C118.16,260.54,95,243.48,77.8,215.48c-10-16.3-20.07-30.13-17.6-44.43,1.77-10.26,21.46,7.3,38.69,35.3S156.43,237,137.29,248.76Z"/><path class="cls-21" d="M69.58,220.54c-17.84-29-16-62.63,4.15-75s51,1.1,68.87,30.07,16,62.64-4.16,75S87.41,249.52,69.58,220.54Zm69.3-42.66C122.3,151,94.1,138.11,76,149.24s-19.31,42.08-2.73,69S118.06,258,136.14,246.9,155.45,204.81,138.88,177.88Z"/><path class="cls-12" d="M98.7,164.46a10.29,10.29,0,1,0-3.36,14.16A10.28,10.28,0,0,0,98.7,164.46ZM85.8,172.4a4.86,4.86,0,1,1,6.69,1.6A4.86,4.86,0,0,1,85.8,172.4Z"/><polygon class="cls-22" points="94.2 102.42 84.21 94.44 98.87 93.34 94.2 102.42"/><polygon class="cls-22" points="177.65 247.57 190.37 246.21 180.73 257.3 177.65 247.57"/><path class="cls-23" d="M109.12,192.82c-21.05-36.69-27.44-68.34-27.83-70.32a18.34,18.34,0,0,1,36-7h0c.12.62,12.89,62.39,61.83,107.5a18.33,18.33,0,0,1-24.85,27A239.81,239.81,0,0,1,109.12,192.82Z"/><path class="cls-4" d="M109.12,192.82A272.23,272.23,0,0,1,89.3,150c14.27-15.42,35.26-10.55,35.26-10.55a230.4,230.4,0,0,0,31.48,58S149,219.73,127.11,220A252.58,252.58,0,0,1,109.12,192.82Z"/><ellipse class="cls-6" cx="124.73" cy="179.86" rx="15.19" ry="10.47" transform="translate(-72.97 85.94) rotate(-29.85)"/><path class="cls-24" d="M211.16,63c-13.8-7-25.09,7.6-22.34,19.77,2,8.69,11.38,20.59,20.94,23.26,3.82,1.06,6.37-1.41,10.58-2.35s7.58.23,10.57-2.34c7.5-6.45,11-21.2,9-29.9C237.13,59.27,220.62,50.82,211.16,63Z"/><path class="cls-25" d="M231.36,62.09c1.7,1.24,2.27,3,1.27,4s-3.18.71-4.88-.52-2.28-3-1.28-4S229.66,60.86,231.36,62.09Z"/><polygon class="cls-26" points="211.16 63 202.4 51.41 206.99 48.82 211.16 63"/><path class="cls-27" d="M222.39,47.08s-14.95,3.33-11.12,15.8C220.86,62.45,222.39,47.08,222.39,47.08Z"/><path class="cls-10" d="M236.89,89.33C224.71,80.64,211.83,93,212.7,105c.63,8.6,7.9,21.31,16.65,25.24,3.49,1.57,6.29-.43,10.44-.72s7.21,1.31,10.43-.71c8.1-5.08,13.51-18.67,12.89-27.26C262.23,89.51,247.68,79.06,236.89,89.33Z"/><path class="cls-28" d="M256.31,91.37c1.44,1.43,1.73,3.2.64,4s-3.14.23-4.59-1.2-1.74-3.2-.65-4S254.86,90,256.31,91.37Z"/><polygon class="cls-26" points="236.89 89.33 238.01 75.34 242.98 76.42 236.89 89.33"/><path class="cls-27" d="M222.75,76.93s1.7,14.7,14.07,12.27C237.36,79.94,222.75,76.93,222.75,76.93Z"/><path class="cls-29" d="M190.84,92.62c-15.93-3.34-19.87,15.76-11.88,28,5.71,8.73,18.19,16.2,28.24,16.15,4,0,5.28-3.45,8.76-5.72s7.13-2.06,8.75-5.73c4.08-9.19,2.24-23.62-3.47-32.35C213.25,80.73,194.18,76.69,190.84,92.62Z"/><path class="cls-30" d="M208.05,86.22c2.13.81,3.45,2.54,2.95,3.86s-2.63,1.73-4.76.92-3.45-2.53-3-3.85S205.92,85.41,208.05,86.22Z"/><polygon class="cls-26" points="190.84 92.62 186.35 78.34 191.38 77.1 190.84 92.62"/><path class="cls-27" d="M169.78,90s11.5,11,20.92,2.51C185.62,82.53,169.78,90,169.78,90Z"/><circle class="cls-14" cx="146.24" cy="168.68" r="28.61" transform="translate(-35.73 39.35) rotate(-13.67)"/><polygon class="cls-31" points="130.37 141.06 133.88 144.61 132.15 147.13 136.7 145.79 137.39 148.15 140.2 144.4 144.3 144.85 143.65 142.66 146.27 140.97 143.58 140.42 145.04 136.76 140.37 139.59 138.27 137.83 136.36 141.73 130.37 141.06"/><path class="cls-32" d="M140.17,141.83c.11.38-.46.88-1.28,1.12s-1.57.13-1.69-.25.47-.88,1.28-1.12S140.06,141.45,140.17,141.83Z"/><path class="cls-33" d="M160.46,145.81c2,1,3,2.85,2.4,4.1s-2.76,1.44-4.73.43-3-2.85-2.41-4.1S158.49,144.79,160.46,145.81Z"/><path class="cls-34" d="M255.7,183.09c.85,3.44-11,9.31-26.5,13.09s-28.71,4.06-29.56.61,11-9.31,26.51-13.09S254.86,179.64,255.7,183.09Z"/><path class="cls-35" d="M255.47,182.13c.84,3.45-11,9.31-26.5,13.1s-28.72,4.05-29.56.61,11-9.31,26.5-13.1S254.63,178.69,255.47,182.13Z"/><rect class="cls-35" x="195.71" y="165.14" width="57.71" height="24.19" transform="translate(-35.66 58.4) rotate(-13.74)"/><path class="cls-34" d="M249.73,158.64c.84,3.44-11,9.31-26.51,13.09s-28.71,4.06-29.55.61,11-9.31,26.5-13.09S248.88,155.19,249.73,158.64Z"/><path class="cls-36" d="M244.57,159.81c.72,3-8.94,7.88-21.58,11s-23.48,3.19-24.2.23,8.93-7.88,21.57-11S243.84,156.85,244.57,159.81Z"/><path class="cls-34" d="M231.37,162.41c.31,1.28-3.84,3.39-9.27,4.71s-10.1,1.38-10.41.1,3.84-3.38,9.28-4.71S231.06,161.14,231.37,162.41Z"/><path class="cls-37" d="M243.89,177.57c2.14,4-4.54,11.67-15.72,14.39s-20.62-1-20.59-5.52,7.62-8.42,16.63-10.67S241.75,173.46,243.89,177.57Z"/><path class="cls-38" d="M233.16,187.22c-2.26,4.6-10.9,4.78-10.87,4.69,0-1,2.77-1.32,2.71-3.27C224.6,188.66,233.28,186.84,233.16,187.22Z"/><path class="cls-38" d="M230.36,178.47c-4.11-2.36-10.65,1.13-10.73,1.1.42,1,2.77.07,3.59,1.81C222.94,181.72,230.75,178.87,230.36,178.47Z"/><path class="cls-38" d="M209.53,187.43c-4.64,1.07-4.14-1.44-8.66-2.52C200.71,184.48,211,182,209.53,187.43Z"/><path class="cls-39" d="M209.53,187.43c-4.75-.14-3.76,2.26-8.43,3.8C200.9,192,212.38,192.64,209.53,187.43Z"/><path class="cls-40" d="M246,178.29c-10,13.62-29.66,12.37-35.89,10.21a1.16,1.16,0,0,1-.2-2.2c6.81-3,21-11.06,35.38-9.65A1,1,0,0,1,246,178.29Z"/><path class="cls-41" d="M246,178.29a26.37,26.37,0,0,1-8.36,7.29c-3.29-.13-5.59-5.13-3.33-8.4a37.7,37.7,0,0,1,11-.53A1,1,0,0,1,246,178.29Z"/><path class="cls-42" d="M240.65,179.71a.84.84,0,1,1,.52-1.12A.87.87,0,0,1,240.65,179.71Z"/><path class="cls-38" d="M229.66,183.85c-1.54.55-3.08,1.06-4.64,1.54-.58.18-.87.75-.57,1.12l1.55,1.83a1,1,0,0,0,1.41-.11q1.59-1.68,3.11-3.39C231.05,184.24,230.45,183.57,229.66,183.85Z"/><path class="cls-12" d="M240.73,179.54a.71.71,0,1,1,.44-.95A.75.75,0,0,1,240.73,179.54Z"/><path class="cls-43" d="M240.42,178.81a.31.31,0,1,1-.24-.58.34.34,0,0,1,.44.16A.33.33,0,0,1,240.42,178.81Z"/><rect class="cls-44" x="167.38" y="119.91" width="60.34" height="131.91"/><rect class="cls-45" x="170.87" y="135.57" width="53.16" height="103.84"/><rect class="cls-46" x="167.38" y="216.58" width="60.34" height="16.5"/><polygon class="cls-45" points="199.39 91.6 195.52 91.6 167.38 119.91 227.53 119.91 199.39 91.6"/><polygon class="cls-47" points="199.07 96.29 195.84 96.29 172.36 119.91 222.55 119.91 199.07 96.29"/><rect class="cls-44" x="195.52" y="68.05" width="3.78" height="23.55"/><rect class="cls-12" x="169.26" y="149.27" width="56.15" height="20.7"/><path class="cls-46" d="M187.48,160.7c-.09-1.95-.2-4.31-.18-6.35h-.07c-.49,1.84-1.12,3.88-1.79,5.79l-2.2,6.56H181.1l-2-6.47c-.58-1.93-1.12-4-1.52-5.88h-.05c-.06,2-.15,4.38-.27,6.44l-.33,6.09h-2.58l1-15.13H179l2,6.08c.54,1.77,1,3.57,1.39,5.25h.07c.4-1.64.92-3.5,1.5-5.27l2.09-6.06h3.59l.87,15.13h-2.69Z"/><path class="cls-46" d="M196,151.75v15.13h-2.76V151.75Z"/><path class="cls-46" d="M199.19,151.75H202v12.81h6.22v2.32h-9Z"/><path class="cls-46" d="M210.25,151.75H213v7h.07c.36-.59.74-1.13,1.1-1.64l4-5.32h3.41l-5.21,6.44,5.54,8.69h-3.23l-4.28-6.94L213,161.56v5.32h-2.74Z"/><rect class="cls-48" x="173.45" y="176.45" width="33.85" height="2.53"/><rect class="cls-48" x="173.45" y="183.07" width="45.44" height="2.53"/><rect class="cls-48" x="173.45" y="189.69" width="45.44" height="2.53"/><rect class="cls-48" x="173.45" y="207.35" width="45.44" height="2.53"/><polygon class="cls-12" points="243.84 210.58 173.72 210.58 181.64 243.46 235.91 243.46 243.84 210.58"/><rect class="cls-49" x="168.73" y="204.54" width="81.85" height="6.04"/><polygon class="cls-49" points="230.44 236.65 188.88 236.65 186.58 217.63 232.74 217.63 230.44 236.65"/><ellipse class="cls-12" cx="209.66" cy="227.02" rx="12.13" ry="6.27"/><circle class="cls-50" cx="146.24" cy="92.02" r="22.05" transform="translate(32.47 222.05) rotate(-80.99)"/><polygon class="cls-31" points="137.8 68.97 140 72.12 138.36 73.81 141.99 73.39 142.21 75.28 144.83 72.79 147.88 73.67 147.68 71.92 149.89 70.98 147.91 70.21 149.5 67.62 145.59 69.16 144.22 67.55 142.26 70.27 137.8 68.97"/><path class="cls-32" d="M145.14,70.84c0,.3-.47.61-1.12.68s-1.21-.11-1.24-.41.46-.61,1.11-.69S145.1,70.53,145.14,70.84Z"/><path class="cls-33" d="M160,76.51c1.36,1,1.94,2.56,1.29,3.43s-2.29.73-3.65-.29-1.95-2.57-1.3-3.43S158.66,75.48,160,76.51Z"/><circle class="cls-14" cx="169.64" cy="115.22" r="25.72" transform="translate(-28.28 61.54) rotate(-19.01)"/><polygon class="cls-31" points="170.13 86.59 171.21 90.95 168.71 92.1 172.83 93.17 172.28 95.31 176.17 93.71 179.13 95.94 179.64 93.95 182.44 93.86 180.62 92.19 183.43 90.04 178.53 90.08 177.72 87.75 174.44 89.88 170.13 86.59"/><path class="cls-32" d="M177.34,91.71c-.09.34-.77.47-1.51.27s-1.27-.62-1.18-1,.76-.47,1.5-.27S177.43,91.36,177.34,91.71Z"/><path class="cls-33" d="M191.15,104.13c1.06,1.69,1,3.61,0,4.27s-2.8-.16-3.85-1.85-1-3.6,0-4.27S190.1,102.44,191.15,104.13Z"/><circle class="cls-51" cx="132.96" cy="120.9" r="28.61" transform="translate(-43.31 155.89) rotate(-53.51)"/><polygon class="cls-31" points="117.09 93.28 120.6 96.83 118.87 99.35 123.42 98.02 124.11 100.38 126.92 96.63 131.01 97.07 130.37 94.88 132.99 93.2 130.3 92.64 131.75 88.98 127.09 91.81 124.99 90.05 123.08 93.96 117.09 93.28"/><path class="cls-32" d="M126.89,94.05c.11.38-.46.89-1.28,1.12s-1.57.13-1.69-.25.47-.88,1.28-1.12S126.78,93.67,126.89,94.05Z"/><path class="cls-33" d="M147.18,98c2,1,3,2.85,2.4,4.1s-2.76,1.44-4.73.43-3-2.85-2.41-4.1S145.2,97,147.18,98Z"/><rect class="cls-52" x="28.57" y="112.32" width="242.57" height="22.89" rx="9.64"/><path class="cls-52" d="M38.21,135.21l11,108.62c1.11,10.94,10.61,19.63,21.23,19.63h161c10.63,0,20.12-8.69,21.23-19.63l11-108.62Zm45,103.29a4.58,4.58,0,0,1-4.57,5H63.76a5.56,5.56,0,0,1-5.37-5L56,212.59a4.68,4.68,0,0,1,4.58-5.35H76a5.66,5.66,0,0,1,5.43,5.35Zm-3.45-51.3a4.94,4.94,0,0,1-4.78,5.55H59.35a6,6,0,0,1-5.66-5.55l-2.63-28.65c-.3-3.25,1.85-5.91,4.8-5.91H72.05c3,0,5.53,2.66,5.75,5.91Zm35.5,51.3a4.75,4.75,0,0,1-4.72,5H95.65a5.34,5.34,0,0,1-5.2-5L88.9,212.59a4.86,4.86,0,0,1,4.76-5.35H109a5.46,5.46,0,0,1,5.27,5.35Zm-1.81-51.3a5.14,5.14,0,0,1-5,5.55H92.86a5.76,5.76,0,0,1-5.48-5.55l-1.72-28.65c-.2-3.25,2-5.91,5-5.91h16.19c3,0,5.44,2.66,5.55,5.91Zm33.87,51.3a4.93,4.93,0,0,1-4.88,5H127.55a5.13,5.13,0,0,1-5-5l-.73-25.91a5,5,0,0,1,4.93-5.35h15.38a5.24,5.24,0,0,1,5.1,5.35Zm-.18-51.3a5.34,5.34,0,0,1-5.13,5.55h-15.6a5.54,5.54,0,0,1-5.3-5.55l-.81-28.65c-.09-3.25,2.22-5.91,5.18-5.91h16.19a5.68,5.68,0,0,1,5.36,5.91Zm32.24,51.3a5.13,5.13,0,0,1-5,5H159.45a4.93,4.93,0,0,1-4.88-5l.09-25.91a5.25,5.25,0,0,1,5.1-5.35h15.38a5,5,0,0,1,4.93,5.35Zm1.45-51.3a5.55,5.55,0,0,1-5.31,5.55h-15.6a5.34,5.34,0,0,1-5.13-5.55l.11-28.65a5.68,5.68,0,0,1,5.36-5.91h16.19c3,0,5.27,2.66,5.18,5.91Zm30.61,51.3a5.34,5.34,0,0,1-5.2,5H191.35a4.75,4.75,0,0,1-4.72-5l.91-25.91a5.46,5.46,0,0,1,5.27-5.35h15.38a4.86,4.86,0,0,1,4.76,5.35Zm3.07-51.3a5.76,5.76,0,0,1-5.48,5.55H193.4a5.14,5.14,0,0,1-5-5.55l1-28.65c.11-3.25,2.6-5.91,5.55-5.91H211.2c3,0,5.19,2.66,5,5.91Zm29,51.3a5.56,5.56,0,0,1-5.36,5H223.25a4.57,4.57,0,0,1-4.56-5l1.74-25.91a5.66,5.66,0,0,1,5.43-5.35h15.39a4.68,4.68,0,0,1,4.58,5.35Zm4.7-51.3a6,6,0,0,1-5.65,5.55h-15.6a4.94,4.94,0,0,1-4.78-5.55l1.93-28.65c.21-3.25,2.79-5.91,5.74-5.91H246c2.95,0,5.1,2.66,4.8,5.91Z"/><polygon class="cls-53" points="262.65 144.96 39.2 144.96 38.21 135.21 263.64 135.21 262.65 144.96"/><circle class="cls-54" cx="60.06" cy="123.46" r="10.41" transform="translate(-73.93 153.41) rotate(-76.66)"/><path class="cls-55" d="M16.47,38.13,0,49.61l54,77.51a9.94,9.94,0,0,0,13.84,2.47l.17-.11a9.94,9.94,0,0,0,2.47-13.84Z"/><path class="cls-56" d="M63.1,116.77a4.15,4.15,0,1,1-5.17,2.79A4.14,4.14,0,0,1,63.1,116.77Z"/><circle class="cls-54" cx="239.98" cy="123.46" r="10.41" transform="matrix(0.26, -0.97, 0.97, 0.26, 59.25, 323.89)"/><path class="cls-55" d="M305.66,55.27,290.18,42.48,230,115.31a9.93,9.93,0,0,0,1.33,14l.15.13a10,10,0,0,0,14-1.33Z"/><path class="cls-56" d="M239,125a4.15,4.15,0,1,1,3.28-4.87A4.15,4.15,0,0,1,239,125Z"/></g></g></svg>