<svg xmlns="http://www.w3.org/2000/svg" xmlns:xlink="http://www.w3.org/1999/xlink" viewBox="0 0 260.75 205.43"><defs><style>.cls-1{isolation:isolate;}.cls-2{fill:url(#linear-gradient);}.cls-3{fill:url(#linear-gradient-2);}.cls-4{fill:url(#linear-gradient-3);}.cls-13,.cls-5{fill:#fff;}.cls-5{opacity:0.23;mix-blend-mode:overlay;}.cls-6{fill:url(#linear-gradient-5);}.cls-7{fill:url(#linear-gradient-6);}.cls-8{fill:url(#linear-gradient-7);}.cls-9{fill:url(#linear-gradient-8);}.cls-10{fill:url(#linear-gradient-9);}.cls-11{fill:url(#linear-gradient-10);}.cls-12{fill:#0e3c66;}</style><linearGradient id="linear-gradient" x1="252.28" y1="150.52" x2="149.65" y2="150.52" gradientUnits="userSpaceOnUse"><stop offset="0.12" stop-color="#ffc000"/><stop offset="0.27" stop-color="#fdb702"/><stop offset="0.53" stop-color="#f7a008"/><stop offset="0.84" stop-color="#ed7911"/><stop offset="1" stop-color="#e76316"/></linearGradient><linearGradient id="linear-gradient-2" x1="173.6" y1="172.82" x2="113.78" y2="113.01" gradientUnits="userSpaceOnUse"><stop offset="0" stop-color="#ffc000"/><stop offset="1" stop-color="#e76316"/></linearGradient><linearGradient id="linear-gradient-3" x1="196.2" y1="149.93" x2="91.75" y2="45.47" gradientUnits="userSpaceOnUse"><stop offset="0" stop-color="#00d466"/><stop offset="1" stop-color="#0b90d3"/></linearGradient><linearGradient id="linear-gradient-5" x1="207.18" y1="106.03" x2="207.18" y2="16.6" xlink:href="#linear-gradient-3"/><linearGradient id="linear-gradient-6" x1="203.6" y1="79.34" x2="138.43" y2="14.17" gradientUnits="userSpaceOnUse"><stop offset="0" stop-color="#0e3c66"/><stop offset="1" stop-color="#21679b"/></linearGradient><linearGradient id="linear-gradient-7" x1="152.67" y1="19.13" x2="152.67" y2="6.03" xlink:href="#linear-gradient-6"/><linearGradient id="linear-gradient-8" x1="124.99" y1="-23.28" x2="205.72" y2="57.44" xlink:href="#linear-gradient-6"/><linearGradient id="linear-gradient-9" x1="93.38" y1="32.37" x2="126.69" y2="65.68" xlink:href="#linear-gradient-2"/><linearGradient id="linear-gradient-10" x1="103.11" y1="44.51" x2="103.11" y2="10.18" gradientTransform="translate(1.55 -4.56) rotate(2.8)" xlink:href="#linear-gradient-3"/></defs><g class="cls-1"><g id="Layer_2" data-name="Layer 2"><g id="OBJECTS"><path class="cls-2" d="M260.75,114.82l-27.68,4.38c-22.49,4.11-48.86,8.16-77.06,11.69-23.06,2.9-44.9,5.15-64.4,6.72a7.22,7.22,0,0,0-6.27,9.44l7.91,24.16a21.79,21.79,0,0,0,20.71,15h81.38a21.77,21.77,0,0,0,20.69-15v0a89.7,89.7,0,0,1,23.74-37.39C250.86,123.38,260.75,114.82,260.75,114.82Z"/><path class="cls-3" d="M171.87,171.23v0a89.72,89.72,0,0,1,23.75-37.39c3.93-3.71,7.7-7.16,10.95-10.1-15.79,2.52-32.81,4.95-50.56,7.17-23.06,2.9-44.9,5.15-64.4,6.72a7.22,7.22,0,0,0-6.27,9.44l7.91,24.16a21.79,21.79,0,0,0,20.71,15h37.21A21.78,21.78,0,0,0,171.87,171.23Z"/><path class="cls-4" d="M248.12,76l-9.88,30.14h0a11.23,11.23,0,0,1-9,7.61C194.06,119.11,58.44,138,58.44,138l5.05-6.3a33.42,33.42,0,0,0,5.68-31.26L61.19,76Z"/><path class="cls-4" d="M248.12,76l-9.88,30.14h0a11.23,11.23,0,0,1-9,7.61C194.06,119.11,58.44,138,58.44,138l5.05-6.3a33.42,33.42,0,0,0,5.68-31.26L61.19,76Z"/><path class="cls-5" d="M58.44,138s40.3-5.6,82.66-11.57a33.38,33.38,0,0,0,5.36-30.82L140.06,76H61.19l8,24.38a33.42,33.42,0,0,1-5.68,31.26Z"/><path class="cls-6" d="M183,43.13V54.26a82.76,82.76,0,0,1,17.37-5.67s-.57,10.46-3.62,19.15H207a13.27,13.27,0,0,0,11.73-7C227.64,44,231.37,13,231.37,13s-22.88,4.44-39,13.86A18.91,18.91,0,0,0,183,43.13Z"/><path class="cls-7" d="M176.86,15.65v52.1H159.49a10.88,10.88,0,0,1-10.8-11v-.11a32.17,32.17,0,0,0-20.2-29.83V15.65Z"/><polygon class="cls-8" points="176.85 15.65 128.49 15.65 141.54 7.05 163.8 7.05 176.85 15.65"/><path class="cls-9" d="M141.54,3V7.05h22.25V3a3,3,0,0,0-2.95-3H144.5A3,3,0,0,0,141.54,3Z"/><path class="cls-10" d="M139.9,67.74a25.87,25.87,0,1,0-46.67,0Z"/><path class="cls-11" d="M105.41,30.37c-.87-2.9-1.87-9.44-1.87-9.44s6.17,1.51,8.3,4.23a9.2,9.2,0,0,1,1.44,2.54h0c.64-3.05-.56-7.21-3.42-10.84-4.11-5.21-15.94-8.11-15.94-8.11s2.2,9.77,3.38,15.89C98.35,29.94,105.41,30.37,105.41,30.37Z"/><path class="cls-12" d="M50.7,29.28l15.53,31.8A12,12,0,0,0,77,67.83h3.77l-21-43A31.92,31.92,0,0,0,31.3,7H5.07A5.07,5.07,0,0,0,0,12.1H0a5.07,5.07,0,0,0,5.07,5.07H31.3A21.59,21.59,0,0,1,50.7,29.28Z"/><circle class="cls-12" cx="124.4" cy="189.39" r="16.04" transform="translate(-82.55 281.68) rotate(-80.74)"/><path class="cls-13" d="M130,189.39a5.56,5.56,0,1,1-5.56-5.56A5.56,5.56,0,0,1,130,189.39Z"/><circle class="cls-12" cx="187.85" cy="189.39" r="16.04" transform="translate(-23.15 352.6) rotate(-82.95)"/><path class="cls-13" d="M193.42,189.39a5.57,5.57,0,1,1-5.57-5.56A5.57,5.57,0,0,1,193.42,189.39Z"/></g></g></g></svg>