<svg xmlns="http://www.w3.org/2000/svg" viewBox="0 0 223.24 88.26"><defs><style>.cls-1{isolation:isolate;}.cls-2{fill:#242424;}.cls-3,.cls-5{opacity:0.8;}.cls-4{fill:#ffb700;fill-rule:evenodd;}.cls-5{mix-blend-mode:overlay;}</style></defs><g class="cls-1"><g id="Layer_2" data-name="Layer 2"><g id="Layer_1-2" data-name="Layer 1"><polygon class="cls-2" points="95.58 4.97 95.58 7.98 219.76 16.23 211.95 65.46 53.33 81.22 53.33 84.24 214.55 68.22 223.24 13.45 95.58 4.97"/><g class="cls-3"><polygon class="cls-4" points="0 15.51 9.67 80.84 197.67 81.51 219.67 0.84 0 15.51"/></g><g class="cls-5"><polygon class="cls-4" points="0 15.51 9.67 80.84 197.67 81.51 219.67 0.84 0 15.51"/></g><path class="cls-2" d="M95.58,8V5L20.63,0,12.84,88.26l40.49-4v-3l-37.18,3.7L23.36,3.18Z"/><path class="cls-2" d="M53.8,35.87V32.43a2,2,0,0,0-2.29-2.35h-.82c-1.49,0-2.24.78-2.24,2.35v6.5a1.91,1.91,0,0,0,.44,1.47,10.06,10.06,0,0,0,1.42,1l5,2.67a25,25,0,0,1,2.32,1.45,3.79,3.79,0,0,1,1.07,1.26,7,7,0,0,1,.38,2.81v8.36q0,6.6-6.34,6.61H49.49q-6.29,0-6.28-7.21v-2h5.24V57.5a2,2,0,0,0,2.35,2.29h.93c1.38,0,2.07-.76,2.07-2.29V50.84a2,2,0,0,0-.43-1.48,11.93,11.93,0,0,0-1.42-1l-5-2.79a15.19,15.19,0,0,1-2.38-1.47,3.3,3.3,0,0,1-1.06-1.56,7.7,7.7,0,0,1-.33-2.48v-8q0-6.72,6.28-6.72h3.28q6.27,0,6.28,6.72v3.82Z"/><path class="cls-2" d="M68.39,64.55H63.14V32.05q0-6.72,6.29-6.72h3.93q6.27,0,6.28,6.72v32.5H74.4V50.18h-6Zm6-19.12V32.37a2,2,0,0,0-2.3-2.29H70.68a2,2,0,0,0-2.29,2.29V45.43Z"/><path class="cls-2" d="M96.74,64.55H84.28V25.33h5.25V59.79h7.21Z"/><path class="cls-2" d="M99.74,64.55V25.33h13v4.75H105V42h6.89v4.75H105v13h7.76v4.76Z"/><path class="cls-2" d="M128.28,31h3.33a2.69,2.69,0,0,1,1.94.66,1.66,1.66,0,0,1,.5,1.23v0A1.78,1.78,0,0,1,133,34.55a1.81,1.81,0,0,1,1.48,1.8v0c0,1.33-1.1,2-2.75,2h-3.44Zm3.07,3.13c.84,0,1.4-.33,1.4-1v0c0-.58-.47-.94-1.31-.94h-1.87v2Zm.38,3.14c.89,0,1.43-.35,1.43-1v0c0-.62-.5-1-1.53-1h-2.06v2Z"/><path class="cls-2" d="M138.13,31h1.31v7.43h-1.31Z"/><path class="cls-2" d="M143.21,34.72v0A3.78,3.78,0,0,1,147,30.86a4,4,0,0,1,2.85,1l-.83,1a2.88,2.88,0,0,0-2.07-.79,2.51,2.51,0,0,0-2.41,2.62v0a2.48,2.48,0,0,0,2.52,2.65,3.07,3.07,0,0,0,1.79-.56V35.4H147V34.26h3.16v3.12a4.73,4.73,0,0,1-3.1,1.16A3.69,3.69,0,0,1,143.21,34.72Z"/><path class="cls-2" d="M153.64,34.72v0a3.78,3.78,0,0,1,3.83-3.84,4,4,0,0,1,2.85,1l-.82,1a2.92,2.92,0,0,0-2.08-.79A2.51,2.51,0,0,0,155,34.68v0a2.48,2.48,0,0,0,2.52,2.65,3.13,3.13,0,0,0,1.8-.56V35.4h-1.9V34.26h3.16v3.12a4.71,4.71,0,0,1-3.1,1.16A3.69,3.69,0,0,1,153.64,34.72Z"/><path class="cls-2" d="M164.4,31h5.51v1.17h-4.2v1.93h3.72v1.17h-3.72v2H170v1.17H164.4Z"/><path class="cls-2" d="M173.13,37.33l.78-.94a3.4,3.4,0,0,0,2.35,1c.8,0,1.31-.37,1.31-.93v0c0-.53-.29-.81-1.67-1.13-1.58-.38-2.47-.85-2.47-2.22v0A2.27,2.27,0,0,1,176,30.88a4.12,4.12,0,0,1,2.69.93l-.7,1a3.34,3.34,0,0,0-2-.77c-.76,0-1.21.4-1.21.88v0c0,.57.34.82,1.76,1.16s2.39.95,2.39,2.18v0c0,1.39-1.1,2.21-2.66,2.21A4.58,4.58,0,0,1,173.13,37.33Z"/><path class="cls-2" d="M184.2,32.19h-2.36V31h6v1.21h-2.36v6.22H184.2Z"/><path class="cls-2" d="M140.75,50.05l.79-.93a3.43,3.43,0,0,0,2.34,1c.81,0,1.31-.37,1.31-.93v0c0-.53-.29-.82-1.67-1.14-1.58-.38-2.47-.85-2.47-2.22v0a2.27,2.27,0,0,1,2.53-2.15,4.17,4.17,0,0,1,2.7.93l-.7,1a3.37,3.37,0,0,0-2-.76c-.76,0-1.21.39-1.21.88v0c0,.57.34.83,1.76,1.16s2.39,1,2.39,2.18v0c0,1.39-1.09,2.22-2.65,2.22A4.6,4.6,0,0,1,140.75,50.05Z"/><path class="cls-2" d="M152.63,43.65h1.2l3.27,7.48h-1.38L155,49.34h-3.51l-.76,1.79h-1.34Zm1.86,4.53-1.28-3-1.27,3Z"/><path class="cls-2" d="M160.49,43.71h1.31v6.23h3.9v1.19h-5.21Z"/><path class="cls-2" d="M169.17,43.71h5.51v1.16h-4.2V46.8h3.72V48h-3.72v2h4.25v1.17h-5.56Z"/><path class="cls-2" d="M134.08,58.42l.46-.54a1.48,1.48,0,0,0,.94.35c.22,0,.34-.08.34-.2h0c0-.12-.1-.19-.49-.28-.63-.14-1.11-.32-1.11-.92h0c0-.54.43-.94,1.14-.94a1.88,1.88,0,0,1,1.2.39l-.41.58a1.44,1.44,0,0,0-.82-.29c-.19,0-.29.08-.29.19h0c0,.13.1.19.51.28.67.15,1.09.36,1.09.91h0c0,.6-.47.95-1.18.95A2.07,2.07,0,0,1,134.08,58.42Z"/><path class="cls-2" d="M140.38,55.93h.81V57h1.05V55.93h.81v2.92h-.81V57.74h-1.05v1.11h-.81Z"/><path class="cls-2" d="M146.82,57.4h0a1.58,1.58,0,0,1,3.15,0h0a1.53,1.53,0,0,1-1.58,1.52A1.51,1.51,0,0,1,146.82,57.4Zm2.32,0h0a.76.76,0,0,0-.75-.79.75.75,0,0,0-.74.78h0a.76.76,0,0,0,.75.79A.75.75,0,0,0,149.14,57.4Z"/><path class="cls-2" d="M153.74,55.93H155c.74,0,1.21.38,1.21,1h0c0,.69-.53,1.06-1.25,1.06h-.41v.83h-.81Zm1.2,1.45c.29,0,.46-.15.46-.38h0c0-.25-.17-.38-.47-.38h-.38v.77Z"/><path class="cls-2" d="M164.42,55.93h.75l1.21,1.54V55.93h.8v2.92h-.71l-1.25-1.6v1.6h-.8Z"/><path class="cls-2" d="M171,57.4h0a1.53,1.53,0,0,1,1.58-1.52,1.52,1.52,0,0,1,1.57,1.51h0a1.53,1.53,0,0,1-1.58,1.52A1.52,1.52,0,0,1,171,57.4Zm2.32,0h0a.76.76,0,0,0-.75-.79.75.75,0,0,0-.74.78h0a.76.76,0,0,0,.75.79A.74.74,0,0,0,173.27,57.4Z"/><path class="cls-2" d="M177.51,55.93h.86l.51,1.69.56-1.7h.7l.57,1.7.51-1.69h.84l-1,2.94h-.71l-.59-1.68-.58,1.68h-.71Z"/></g></g></g></svg>