<svg xmlns="http://www.w3.org/2000/svg" viewBox="0 0 223.24 88.26"><defs><style>.cls-1{isolation:isolate;}.cls-2{fill:#242424;}.cls-3,.cls-5{opacity:0.8;}.cls-4{fill:#00b993;fill-rule:evenodd;}.cls-5{mix-blend-mode:overlay;}</style></defs><g class="cls-1"><g id="Layer_2" data-name="Layer 2"><g id="Layer_1-2" data-name="Layer 1"><polygon class="cls-2" points="95.58 4.97 95.58 7.98 219.76 16.23 211.95 65.46 53.33 81.22 53.33 84.24 214.55 68.22 223.24 13.45 95.58 4.97"/><g class="cls-3"><polygon class="cls-4" points="0 15.51 9.67 80.84 197.67 81.51 219.67 0.84 0 15.51"/></g><g class="cls-5"><polygon class="cls-4" points="0 15.51 9.67 80.84 197.67 81.51 219.67 0.84 0 15.51"/></g><path class="cls-2" d="M95.58,8V5L20.63,0,12.84,88.26l40.49-4v-3l-37.18,3.7L23.36,3.18Z"/><path class="cls-2" d="M43.49,62.82c-3.83,0-5.74-2-5.74-6V33.36q0-6.09,5.69-6.09H48q5.69,0,5.69,6.09V56.78c0,4-1.91,6-5.74,6Zm1.14-4.31h2.43c1.25,0,1.88-.69,1.88-2.08V33.66a1.86,1.86,0,0,0-2.13-2.08H44.58a1.84,1.84,0,0,0-2.08,2.08V56.43A1.86,1.86,0,0,0,44.63,58.51Z"/><path class="cls-2" d="M68.89,42.37v4.31H62.65V62.82H57.9V27.27H69.68v4.31h-7V42.37Z"/><path class="cls-2" d="M83.89,42.37v4.31H77.65V62.82H72.9V27.27H84.68v4.31h-7V42.37Z"/><path class="cls-2" d="M87.89,62.82V27.27H99.68v4.31h-7V42.37h6.23v4.31H92.65V58.51h7v4.31Z"/><path class="cls-2" d="M103.09,27.27h9.31q5.44,0,5.44,6.09v8.76c0,3.11-.94,5.07-2.82,5.9l3.32,14.8h-4.51l-3.12-14.36h-2.87V62.82h-4.75Zm4.75,17.13H111c1.42,0,2.13-.86,2.13-2.57V34.15c0-1.71-.71-2.57-2.13-2.57h-3.12Z"/><path class="cls-2" d="M139.09,31h1.39l2.25,3.52L145,31h1.39v7.43h-1.3V33.08l-2.35,3.5h0l-2.32-3.47v5.3h-1.28Z"/><path class="cls-2" d="M150.41,31h5.5v1.17h-4.2v1.93h3.73v1.17h-3.73v2H156v1.17h-5.56Z"/><path class="cls-2" d="M159.3,34.72v0a3.78,3.78,0,0,1,3.83-3.84,4,4,0,0,1,2.85,1l-.82,1a2.92,2.92,0,0,0-2.08-.79,2.51,2.51,0,0,0-2.41,2.62v0a2.48,2.48,0,0,0,2.53,2.65,3.1,3.1,0,0,0,1.79-.56V35.4h-1.9V34.26h3.16v3.12a4.71,4.71,0,0,1-3.1,1.16A3.69,3.69,0,0,1,159.3,34.72Z"/><path class="cls-2" d="M172.69,30.93h1.21l3.27,7.48h-1.38L175,36.62h-3.51l-.77,1.79h-1.33Zm1.87,4.53-1.28-3-1.28,3Z"/><path class="cls-2" d="M140.75,50.05l.79-.93a3.43,3.43,0,0,0,2.34,1c.81,0,1.31-.37,1.31-.93v0c0-.53-.29-.82-1.67-1.14-1.58-.38-2.47-.85-2.47-2.22v0a2.27,2.27,0,0,1,2.53-2.15,4.17,4.17,0,0,1,2.7.93l-.7,1a3.37,3.37,0,0,0-2-.76c-.76,0-1.21.39-1.21.88v0c0,.57.34.83,1.76,1.16s2.39,1,2.39,2.18v0c0,1.39-1.09,2.22-2.65,2.22A4.6,4.6,0,0,1,140.75,50.05Z"/><path class="cls-2" d="M152.63,43.65h1.2l3.27,7.48h-1.38L155,49.34h-3.51l-.76,1.79h-1.34Zm1.86,4.53-1.28-3-1.27,3Z"/><path class="cls-2" d="M160.49,43.71h1.31v6.23h3.9v1.19h-5.21Z"/><path class="cls-2" d="M169.17,43.71h5.51v1.16h-4.2V46.8h3.72V48h-3.72v2h4.25v1.17h-5.56Z"/><path class="cls-2" d="M134.08,58.42l.46-.54a1.48,1.48,0,0,0,.94.35c.22,0,.34-.08.34-.2h0c0-.12-.1-.19-.49-.28-.63-.14-1.11-.32-1.11-.92h0c0-.54.43-.94,1.14-.94a1.88,1.88,0,0,1,1.2.39l-.41.58a1.44,1.44,0,0,0-.82-.29c-.19,0-.29.08-.29.19h0c0,.13.1.19.51.28.67.15,1.09.36,1.09.91h0c0,.6-.47.95-1.18.95A2.07,2.07,0,0,1,134.08,58.42Z"/><path class="cls-2" d="M140.38,55.93h.81V57h1.05V55.93h.81v2.92h-.81V57.74h-1.05v1.11h-.81Z"/><path class="cls-2" d="M146.82,57.4h0a1.58,1.58,0,0,1,3.15,0h0a1.53,1.53,0,0,1-1.58,1.52A1.51,1.51,0,0,1,146.82,57.4Zm2.32,0h0a.76.76,0,0,0-.75-.79.75.75,0,0,0-.74.78h0a.76.76,0,0,0,.75.79A.75.75,0,0,0,149.14,57.4Z"/><path class="cls-2" d="M153.74,55.93H155c.74,0,1.21.38,1.21,1h0c0,.69-.53,1.06-1.25,1.06h-.41v.83h-.81Zm1.2,1.45c.29,0,.46-.15.46-.38h0c0-.25-.17-.38-.47-.38h-.38v.77Z"/><path class="cls-2" d="M164.42,55.93h.75l1.21,1.54V55.93h.8v2.92h-.71l-1.25-1.6v1.6h-.8Z"/><path class="cls-2" d="M171,57.4h0a1.53,1.53,0,0,1,1.58-1.52,1.52,1.52,0,0,1,1.57,1.51h0a1.53,1.53,0,0,1-1.58,1.52A1.52,1.52,0,0,1,171,57.4Zm2.32,0h0a.76.76,0,0,0-.75-.79.75.75,0,0,0-.74.78h0a.76.76,0,0,0,.75.79A.74.74,0,0,0,173.27,57.4Z"/><path class="cls-2" d="M177.51,55.93h.86l.51,1.69.56-1.7h.7l.57,1.7.51-1.69h.84l-1,2.94h-.71l-.59-1.68-.58,1.68h-.71Z"/></g></g></g></svg>